<svg width="32" height="32" viewBox="0 0 32 32" fill="none" xmlns="http://www.w3.org/2000/svg">
<path d="M5.33333 18.6665H8C8.73333 18.6665 9.33333 18.0665 9.33333 17.3332V14.6665C9.33333 13.9332 8.73333 13.3332 8 13.3332H5.33333C4.6 13.3332 4 13.9332 4 14.6665V17.3332C4 18.0665 4.6 18.6665 5.33333 18.6665ZM5.33333 25.3332H8C8.73333 25.3332 9.33333 24.7332 9.33333 23.9998V21.3332C9.33333 20.5998 8.73333 19.9998 8 19.9998H5.33333C4.6 19.9998 4 20.5998 4 21.3332V23.9998C4 24.7332 4.6 25.3332 5.33333 25.3332ZM5.33333 11.9998H8C8.73333 11.9998 9.33333 11.3998 9.33333 10.6665V7.99984C9.33333 7.2665 8.73333 6.6665 8 6.6665H5.33333C4.6 6.6665 4 7.2665 4 7.99984V10.6665C4 11.3998 4.6 11.9998 5.33333 11.9998ZM12 18.6665H25.3333C26.0667 18.6665 26.6667 18.0665 26.6667 17.3332V14.6665C26.6667 13.9332 26.0667 13.3332 25.3333 13.3332H12C11.2667 13.3332 10.6667 13.9332 10.6667 14.6665V17.3332C10.6667 18.0665 11.2667 18.6665 12 18.6665ZM12 25.3332H25.3333C26.0667 25.3332 26.6667 24.7332 26.6667 23.9998V21.3332C26.6667 20.5998 26.0667 19.9998 25.3333 19.9998H12C11.2667 19.9998 10.6667 20.5998 10.6667 21.3332V23.9998C10.6667 24.7332 11.2667 25.3332 12 25.3332ZM10.6667 7.99984V10.6665C10.6667 11.3998 11.2667 11.9998 12 11.9998H25.3333C26.0667 11.9998 26.6667 11.3998 26.6667 10.6665V7.99984C26.6667 7.2665 26.0667 6.6665 25.3333 6.6665H12C11.2667 6.6665 10.6667 7.2665 10.6667 7.99984Z" fill="#BDC3BF"/>
</svg>
