<svg width="20" height="20" viewBox="0 0 20 20" fill="none" xmlns="http://www.w3.org/2000/svg">
<path d="M1.91144 9.28189H8.13366C8.8181 9.28189 9.3781 8.63574 9.3781 7.84599V2.1024C9.3781 1.31266 8.8181 0.666504 8.13366 0.666504H1.91144C1.22699 0.666504 0.666992 1.31266 0.666992 2.1024V7.84599C0.666992 8.63574 1.22699 9.28189 1.91144 9.28189ZM1.91144 19.3332H8.13366C8.8181 19.3332 9.3781 18.687 9.3781 17.8973V12.1537C9.3781 11.3639 8.8181 10.7178 8.13366 10.7178H1.91144C1.22699 10.7178 0.666992 11.3639 0.666992 12.1537V17.8973C0.666992 18.687 1.22699 19.3332 1.91144 19.3332ZM11.867 19.3332H18.0892C18.7737 19.3332 19.3337 18.687 19.3337 17.8973V12.1537C19.3337 11.3639 18.7737 10.7178 18.0892 10.7178H11.867C11.1825 10.7178 10.6225 11.3639 10.6225 12.1537V17.8973C10.6225 18.687 11.1825 19.3332 11.867 19.3332ZM11.867 9.28189H18.0892C18.7737 9.28189 19.3337 8.63574 19.3337 7.84599V2.1024C19.3337 1.31266 18.7737 0.666504 18.0892 0.666504H11.867C11.1825 0.666504 10.6225 1.31266 10.6225 2.1024V7.84599C10.6225 8.63574 11.1825 9.28189 11.867 9.28189Z" fill="#5141A4"/>
</svg>
