<svg width="196" height="193" viewBox="0 0 196 193" fill="none" xmlns="http://www.w3.org/2000/svg">
<g clip-path="url(#clip0_494_16875)">
<path d="M124.5 42.3493H71.9593C70.762 42.3508 69.6141 42.8275 68.7675 43.675C67.9209 44.5225 67.4446 45.6715 67.4431 46.87V163.76L66.841 163.944L53.9519 167.895C53.341 168.082 52.6813 168.018 52.1174 167.718C51.5535 167.418 51.1316 166.906 50.9442 166.295L12.6051 40.9358C12.4185 40.3244 12.4821 39.6637 12.7819 39.0992C13.0817 38.5346 13.5931 38.1123 14.2038 37.925L34.0659 31.8372L91.6467 14.1944L111.509 8.10652C111.811 8.0134 112.129 7.98086 112.443 8.01077C112.758 8.04067 113.064 8.13243 113.343 8.28079C113.623 8.42915 113.87 8.63121 114.071 8.87539C114.273 9.11958 114.424 9.4011 114.516 9.70384L124.316 41.7465L124.5 42.3493Z" fill="#CBC6E4"/>
<path d="M135.317 42.2448L123.543 3.62444C123.348 2.98096 123.027 2.38254 122.601 1.86338C122.175 1.34423 121.651 0.914515 121.059 0.598794C120.467 0.283074 119.82 0.0875322 119.153 0.0233512C118.486 -0.0408297 117.813 0.0276074 117.172 0.224745L89.3365 8.78125L31.943 26.4277L4.10755 34.9873C2.81446 35.386 1.73174 36.2837 1.09704 37.4833C0.462343 38.683 0.327524 40.0865 0.722183 41.3858L40.9613 173.374C41.2819 174.423 41.9288 175.341 42.8071 175.994C43.6854 176.646 44.7488 176.999 45.8413 177C46.3469 177 46.8497 176.924 47.3327 176.774L66.4139 170.909L67.0142 170.722V170.092L66.4139 170.276L47.1557 176.198C46.0143 176.548 44.7815 176.428 43.7278 175.866C42.674 175.304 41.8853 174.345 41.5346 173.199L1.29852 41.208C1.12478 40.6404 1.06423 40.044 1.12033 39.453C1.17643 38.8619 1.34807 38.2877 1.62544 37.7634C1.90281 37.239 2.28046 36.7747 2.73675 36.3971C3.19304 36.0196 3.71902 35.7361 4.28456 35.5629L32.12 27.0034L89.5137 9.35993L117.349 0.800409C117.778 0.668941 118.224 0.601909 118.673 0.601489C119.635 0.60366 120.572 0.915285 121.345 1.49072C122.118 2.06616 122.688 2.87517 122.97 3.79925L134.69 42.2448L134.876 42.8476H135.5L135.317 42.2448Z" fill="#A1A6B1"/>
<path d="M37.0611 38C36.4833 37.9996 35.9208 37.8149 35.4562 37.4729C34.9916 37.131 34.6493 36.6498 34.4796 36.1001L30.6183 23.5452C30.5145 23.2079 30.4785 22.8536 30.5123 22.5025C30.5461 22.1514 30.6491 21.8104 30.8153 21.4989C30.9815 21.1874 31.2078 20.9116 31.4811 20.6872C31.7544 20.4627 32.0695 20.2941 32.4083 20.1909L85.1515 4.11706C85.8357 3.90922 86.5748 3.9801 87.2066 4.31415C87.8383 4.64819 88.3112 5.21811 88.5212 5.89881L92.3825 18.4539C92.5912 19.135 92.5199 19.8706 92.1844 20.4995C91.8488 21.1284 91.2764 21.599 90.5926 21.8083L37.8493 37.8821C37.5939 37.9601 37.3282 37.9999 37.0611 38Z" fill="#5141A4"/>
<path d="M57.5 13C60.8137 13 63.5 10.3137 63.5 7C63.5 3.68629 60.8137 1 57.5 1C54.1863 1 51.5 3.68629 51.5 7C51.5 10.3137 54.1863 13 57.5 13Z" fill="#5141A4"/>
<path d="M57.5 12C59.7091 12 61.5 10.2091 61.5 8C61.5 5.79086 59.7091 4 57.5 4C55.2909 4 53.5 5.79086 53.5 8C53.5 10.2091 55.2909 12 57.5 12Z" fill="white"/>
<path d="M181.938 175H80.062C79.3827 174.999 78.7315 174.729 78.2512 174.25C77.7709 173.77 77.5008 173.12 77.5 172.442V50.5581C77.5008 49.8799 77.7709 49.2296 78.2512 48.7501C78.7315 48.2705 79.3827 48.0008 80.062 48H181.938C182.617 48.0008 183.268 48.2705 183.749 48.7501C184.229 49.2297 184.499 49.8799 184.5 50.5581V172.442C184.499 173.12 184.229 173.77 183.749 174.25C183.268 174.729 182.617 174.999 181.938 175Z" fill="#EEECF6"/>
<path d="M135.069 42H71.6238C70.2655 42.0019 68.9633 42.5413 68.0029 43.4999C67.0424 44.4585 66.5019 45.7581 66.5 47.1138V169.785L67.1028 169.602V47.1138C67.1043 45.9176 67.5811 44.7707 68.4286 43.9248C69.2761 43.0789 70.4252 42.6031 71.6238 42.6016H135.256L135.069 42ZM190.376 42H71.6238C70.2655 42.0019 68.9633 42.5413 68.0029 43.4999C67.0424 44.4585 66.5019 45.7581 66.5 47.1138V184.886C66.5019 186.242 67.0424 187.541 68.0029 188.5C68.9633 189.459 70.2655 189.998 71.6238 190H190.376C191.735 189.998 193.037 189.459 193.997 188.5C194.958 187.541 195.498 186.242 195.5 184.886V47.1138C195.498 45.7581 194.958 44.4585 193.997 43.4999C193.037 42.5413 191.735 42.0019 190.376 42ZM194.897 184.886C194.896 186.082 194.419 187.229 193.571 188.075C192.724 188.921 191.575 189.397 190.376 189.398H71.6238C70.4252 189.397 69.2761 188.921 68.4286 188.075C67.5811 187.229 67.1043 186.082 67.1028 184.886V47.1138C67.1043 45.9176 67.5811 44.7707 68.4286 43.9248C69.2761 43.0789 70.4252 42.6031 71.6238 42.6016H190.376C191.575 42.6031 192.724 43.0789 193.571 43.9248C194.419 44.7707 194.896 45.9176 194.897 47.1138V184.886Z" fill="#EEECF6"/>
<path d="M158.782 56H103.218C102.497 55.9992 101.806 55.7083 101.297 55.1913C100.787 54.6742 100.501 53.9732 100.5 53.2419V39.7581C100.501 39.0268 100.787 38.3258 101.297 37.8087C101.806 37.2917 102.497 37.0008 103.218 37H158.782C159.503 37.0008 160.194 37.2917 160.703 37.8087C161.213 38.3258 161.499 39.0268 161.5 39.7581V53.2419C161.499 53.9732 161.213 54.6742 160.703 55.1913C160.194 55.7083 159.503 55.9992 158.782 56Z" fill="#5141A4"/>
<path d="M131.5 38C134.814 38 137.5 35.3137 137.5 32C137.5 28.6863 134.814 26 131.5 26C128.186 26 125.5 28.6863 125.5 32C125.5 35.3137 128.186 38 131.5 38Z" fill="#5141A4"/>
<path d="M131 35C132.933 35 134.5 33.433 134.5 31.5C134.5 29.567 132.933 28 131 28C129.067 28 127.5 29.567 127.5 31.5C127.5 33.433 129.067 35 131 35Z" fill="white"/>
</g>
<defs>
<clipPath id="clip0_494_16875">
<rect width="195" height="193" fill="white" transform="translate(0.5)"/>
</clipPath>
</defs>
</svg>
